<?xml version="1.0" standalone="no"?>
<!DOCTYPE svg PUBLIC "-//W3C//DTD SVG 20010904//EN"
 "http://www.w3.org/TR/2001/REC-SVG-20010904/DTD/svg10.dtd">
<svg version="1.0" xmlns="http://www.w3.org/2000/svg"
 width="500.000000pt" height="500.000000pt" viewBox="0 0 500.000000 500.000000"
 preserveAspectRatio="xMidYMid meet">
<metadata>
Created by potrace 1.14, written by Peter Selinger 2001-2017
</metadata>
<g transform="translate(0.000000,500.000000) scale(0.100000,-0.100000)"
fill="#000000" stroke="none">
<path d="M4105 4002 c-3 -17 -1 -66 5 -108 14 -92 7 -109 -9 -24 -10 49 -15
59 -26 50 -30 -25 -38 -67 -26 -136 15 -82 9 -94 -9 -19 -7 30 -16 55 -19 55
-4 0 -15 -16 -25 -35 -19 -34 -19 -36 4 -120 12 -48 20 -88 17 -91 -4 -5 -17
26 -53 126 -4 12 -9 10 -25 -9 -11 -13 -22 -34 -25 -47 -7 -26 19 -120 48
-177 10 -21 17 -41 15 -43 -4 -4 -31 53 -70 146 l-15 35 -17 -39 c-9 -21 -19
-70 -22 -107 -3 -38 -9 -69 -13 -69 -11 0 -30 -58 -30 -92 0 -76 69 -204 218
-408 l26 -35 -27 25 c-59 52 -178 247 -211 344 -14 41 -17 4 -7 -91 6 -54 17
-116 26 -136 18 -43 137 -189 249 -306 120 -124 52 -78 -85 59 -66 64 -119
116 -119 114 0 -2 20 -49 44 -105 66 -149 115 -225 213 -330 82 -88 88 -97 85
-131 -2 -21 -6 -38 -10 -38 -4 0 -19 22 -33 48 -15 26 -67 99 -116 162 -102
132 -146 194 -185 265 -31 57 -34 56 -13 -4 25 -72 90 -172 204 -314 139 -173
143 -181 129 -237 l-11 -43 -21 59 c-30 82 -87 166 -171 250 -99 100 -135 114
-46 18 91 -99 196 -254 212 -315 10 -38 10 -53 -1 -79 l-14 -33 -16 49 c-40
116 -104 205 -200 277 -90 68 -93 57 -6 -24 89 -83 165 -191 190 -271 18 -57
18 -57 -5 -98 l-23 -41 -11 53 c-13 66 -72 178 -126 241 -58 68 -68 58 -15
-16 50 -71 113 -195 122 -243 5 -26 -2 -44 -39 -100 -91 -141 -113 -137 -109
22 3 125 0 138 -38 154 -45 18 -91 -2 -150 -66 -43 -48 -50 -53 -50 -32 0 59
-25 87 -64 72 -13 -5 -16 -20 -16 -72 l0 -66 -50 -48 c-54 -52 -86 -60 -116
-31 -14 15 -16 31 -11 114 6 100 1 119 -34 119 -10 0 -24 -7 -33 -15 -11 -12
-21 -13 -41 -5 -90 34 -201 -26 -251 -137 -39 -87 -139 -146 -209 -123 -31 10
-115 91 -115 110 0 4 24 37 54 74 147 178 214 344 223 551 7 152 -8 244 -54
336 -41 82 -89 122 -164 138 -160 35 -308 -99 -355 -321 -32 -146 0 -381 75
-557 17 -40 31 -75 31 -77 0 -2 -20 -1 -45 3 -65 8 -129 -18 -166 -70 -16 -22
-29 -44 -29 -49 0 -14 -71 -116 -85 -122 -29 -11 -38 22 -32 121 6 108 -1 139
-39 153 -47 18 -97 -4 -153 -67 l-51 -57 0 36 c0 20 -7 44 -16 52 -18 19 -20
19 -45 6 -16 -9 -19 -22 -19 -81 0 -70 0 -70 -45 -113 -47 -46 -91 -65 -109
-46 -7 7 -11 60 -11 143 l0 132 -35 0 c-37 0 -33 9 -75 -147 -17 -63 -58 -120
-80 -112 -23 9 -36 67 -34 144 2 53 -2 74 -12 81 -19 12 -22 11 -44 -5 -28
-20 -34 -140 -10 -202 21 -55 47 -74 103 -74 34 0 49 6 71 28 l28 27 15 -37
c30 -70 108 -64 193 13 l55 51 0 -51 c0 -39 4 -53 19 -61 30 -15 56 15 90 105
36 95 84 175 105 175 13 0 14 -15 9 -97 -4 -77 -2 -106 10 -135 26 -63 95 -64
153 -3 l32 34 6 -25 c4 -13 21 -34 39 -45 61 -39 186 -7 296 75 l34 25 50 -45
c28 -25 62 -51 76 -59 72 -36 143 -26 207 29 l39 33 17 -29 c49 -79 167 -59
236 40 26 38 32 42 32 23 0 -12 13 -36 29 -52 23 -23 38 -29 71 -29 53 0 105
22 140 60 l27 29 7 -49 c12 -87 69 -86 95 2 19 62 85 190 110 212 l22 20 -2
-110 c-2 -146 15 -184 86 -184 36 0 108 70 134 130 27 62 68 94 156 118 39 11
88 27 110 37 22 9 51 21 64 26 13 5 22 12 19 14 -5 6 -212 -51 -239 -66 -23
-12 -24 -1 -3 29 20 29 41 40 128 62 90 23 138 47 191 95 l40 36 -75 -40 c-41
-21 -109 -49 -150 -61 -41 -12 -81 -27 -87 -32 -7 -6 -13 -7 -13 -2 2 29 40
63 153 133 140 88 199 133 221 166 15 23 -277 -166 -322 -208 l-22 -21 11 35
c5 19 15 42 20 52 5 10 7 22 4 27 -3 6 0 7 7 5 8 -3 48 26 91 65 60 56 84 87
111 143 33 69 58 151 40 134 -5 -4 -16 -27 -25 -51 -24 -66 -81 -144 -155
-216 l-66 -65 5 39 c5 30 20 53 70 105 35 36 81 93 103 126 40 63 104 200 104
224 0 8 -27 -13 -60 -47 -58 -60 -107 -98 -115 -91 -2 2 45 61 105 131 59 69
113 136 120 147 11 22 27 191 18 191 -3 0 -33 -37 -66 -82 -33 -46 -72 -94
-88 -108 -15 -14 4 15 43 63 39 48 81 107 93 131 23 42 23 46 10 134 -7 51
-17 92 -22 92 -5 0 -16 -17 -24 -37 -39 -97 -74 -161 -108 -198 l-37 -40 32
60 c18 33 50 89 71 125 51 85 63 130 47 178 -6 20 -15 40 -18 45 -4 4 -22 -25
-39 -65 -18 -40 -42 -84 -53 -98 -16 -20 -14 -13 7 30 38 77 74 177 74 203 0
31 -67 137 -74 117 -44 -126 -82 -207 -92 -197 -2 1 8 38 22 81 13 43 27 104
30 135 5 52 3 59 -28 101 l-33 44 -8 -68 c-11 -105 -28 -150 -21 -58 8 114 -3
177 -38 213 -17 16 -32 28 -34 26 -2 -2 1 -39 6 -82 6 -44 6 -83 2 -87 -5 -5
-15 39 -22 97 -10 89 -16 111 -37 133 l-24 27 4 -70 c3 -38 1 -79 -3 -90 -7
-16 -9 -13 -9 15 -1 40 -27 154 -40 178 -7 12 -10 8 -16 -16z m-176 -764 c23
-43 39 -78 37 -78 -7 0 -74 112 -86 145 -17 45 2 19 49 -67z m132 -205 c13
-16 12 -17 -3 -4 -17 13 -22 21 -14 21 2 0 10 -8 17 -17z m-1246 -143 c17 -11
43 -41 57 -67 75 -139 66 -426 -20 -630 -39 -95 -147 -253 -172 -253 -12 0
-67 111 -104 207 -68 176 -95 405 -62 529 27 101 84 184 151 218 42 22 111 20
150 -4z m-285 -967 c80 -71 75 -87 -40 -147 -81 -43 -94 -44 -116 -11 -37 57
28 195 93 195 13 0 41 -16 63 -37z m769 28 c12 -8 9 -18 -14 -63 -56 -107
-108 -154 -141 -127 -30 25 8 148 58 183 25 17 75 21 97 7z"/>
<path d="M1558 3053 c-178 -158 -729 -673 -840 -785 l-138 -138 -1 112 c-1 62
-5 262 -8 443 l-6 330 -35 0 -35 0 -3 -1027 c-2 -923 -1 -1028 14 -1042 19
-19 25 -20 48 -3 15 11 17 50 23 445 3 237 8 432 10 432 2 0 30 -11 62 -25 78
-32 260 -87 456 -137 214 -54 225 -55 225 -30 0 26 -16 32 -328 122 -378 109
-447 153 -396 253 53 102 157 209 664 681 217 203 395 376 395 385 0 11 -10
17 -32 19 -25 3 -41 -5 -75 -35z"/>
<path d="M810 1234 c0 -8 5 -48 10 -87 21 -147 17 -137 54 -137 30 0 35 5 61
60 43 91 51 92 59 10 l7 -70 33 0 c33 0 36 4 92 112 33 61 61 115 62 120 2 4
-10 8 -26 8 -27 0 -34 -7 -69 -75 -21 -41 -41 -75 -45 -75 -5 0 -8 13 -8 29 0
15 -3 49 -6 75 -6 42 -9 46 -34 46 -23 0 -32 -10 -66 -74 -21 -41 -42 -73 -45
-70 -4 2 -9 35 -13 74 -7 69 -8 70 -37 70 -20 0 -29 -5 -29 -16z"/>
<path d="M1201 1143 c-11 -60 -21 -114 -21 -121 0 -10 22 -12 93 -10 87 3 92
4 95 26 3 21 0 22 -57 22 -58 0 -61 1 -61 25 0 22 4 24 57 27 46 2 59 7 61 21
3 14 -5 17 -51 17 -52 0 -54 1 -49 25 4 24 8 25 68 25 62 0 64 1 64 25 0 25
-1 25 -89 25 l-88 0 -22 -107z"/>
<path d="M1445 1238 c-4 -12 -45 -217 -45 -224 0 -2 40 -4 89 -4 74 0 92 3
115 21 27 21 34 56 16 89 -7 13 -6 21 5 30 23 19 19 66 -7 84 -28 20 -166 23
-173 4z m135 -57 c0 -21 -19 -31 -61 -31 -21 0 -29 5 -29 18 0 27 9 32 52 32
31 0 38 -4 38 -19z m-26 -77 c24 -9 19 -41 -6 -48 -64 -17 -88 -4 -72 38 6 16
48 21 78 10z"/>
<path d="M1797 1234 c-3 -11 -13 -57 -22 -104 -9 -47 -19 -93 -21 -102 -5 -16
3 -18 78 -18 98 0 142 18 170 71 27 50 23 93 -11 131 -28 31 -34 33 -109 36
-71 4 -81 2 -85 -14z m143 -52 c19 -16 22 -24 16 -55 -4 -20 -16 -43 -29 -52
-27 -19 -108 -21 -102 -2 2 6 9 38 15 70 11 56 12 57 45 57 18 0 43 -8 55 -18z"/>
<path d="M2075 1238 c-4 -12 -45 -217 -45 -224 0 -2 43 -4 95 -4 95 0 95 0 95
25 0 24 -3 25 -60 25 -60 0 -66 4 -54 34 5 12 20 16 59 16 44 0 54 3 58 20 5
18 0 20 -50 20 -51 0 -54 2 -51 23 3 20 10 22 63 25 57 3 75 12 75 40 0 9 -25
12 -90 12 -64 0 -92 -4 -95 -12z"/>
<path d="M2280 1228 c1 -13 11 -66 24 -118 22 -92 24 -95 53 -98 28 -3 34 3
102 111 39 62 71 117 71 120 0 4 -12 7 -27 7 -24 0 -35 -12 -78 -80 -27 -43
-51 -78 -53 -76 -2 2 -11 37 -20 77 -16 68 -20 74 -45 77 -23 3 -27 0 -27 -20z"/>
<path d="M2555 1238 c-6 -16 -45 -207 -45 -219 0 -5 43 -9 95 -9 95 0 95 0 95
25 0 24 -3 25 -61 25 -57 0 -60 1 -57 23 3 19 10 22 61 25 49 3 57 6 57 22 0
17 -7 20 -50 20 -47 0 -50 2 -50 25 0 24 2 25 65 25 36 0 65 4 65 9 0 5 3 16
6 25 5 14 -6 16 -85 16 -64 0 -93 -4 -96 -12z"/>
<path d="M2761 1143 c-11 -60 -21 -114 -21 -121 0 -10 21 -12 88 -10 82 3 87
4 90 26 3 21 0 22 -52 22 -64 0 -63 -2 -41 100 19 88 19 90 -14 90 -28 0 -28
-1 -50 -107z"/>
<path d="M3013 1230 c-73 -44 -90 -163 -29 -203 60 -40 163 -21 201 36 39 60
27 145 -26 172 -40 21 -108 19 -146 -5z m119 -47 c24 -21 23 -64 -3 -97 -15
-20 -29 -26 -58 -26 -20 0 -42 5 -49 12 -7 7 -12 29 -12 49 0 64 77 103 122
62z"/>
<path d="M3267 1234 c-3 -11 -13 -57 -22 -104 -9 -47 -19 -93 -22 -103 -4 -16
0 -18 29 -15 28 2 34 7 36 31 3 24 7 27 42 27 49 0 82 13 109 41 26 28 27 79
2 110 -16 20 -30 24 -94 27 -66 4 -76 2 -80 -14z m117 -40 c22 -9 20 -51 -3
-64 -32 -17 -71 -13 -71 8 1 56 25 75 74 56z"/>
<path d="M3515 1238 c-6 -16 -45 -207 -45 -219 0 -5 43 -9 95 -9 95 0 95 0 95
25 0 24 -3 25 -61 25 -57 0 -60 1 -57 23 3 19 10 22 61 25 49 3 57 6 57 22 0
17 -7 20 -50 20 -47 0 -50 2 -50 25 0 24 2 25 65 25 36 0 65 4 65 9 0 5 3 16
6 25 5 14 -6 16 -85 16 -64 0 -93 -4 -96 -12z"/>
<path d="M3721 1143 c-27 -136 -27 -133 8 -133 25 0 30 4 33 28 5 41 43 43 66
3 14 -25 24 -31 50 -31 l34 0 -21 32 -20 33 25 20 c32 26 46 75 30 106 -17 34
-53 49 -122 49 l-61 0 -22 -107z m133 51 c22 -9 20 -51 -3 -64 -24 -12 -71
-13 -71 -1 0 5 3 23 6 40 7 32 29 40 68 25z"/>
</g>
</svg>
