<?xml version="1.0" encoding="utf-8"?>
<svg version="1.1" xmlns="http://www.w3.org/2000/svg" xmlns:xlink="http://www.w3.org/1999/xlink" x="0px" y="0px"
	 viewBox="0 0 500 500" style="enable-background:new 0 0 500 500;" xml:space="preserve">
<g id="Floor">
	<path style="fill:#F5F5F5;" d="M407.699,260.391c-88.048-50.835-230.336-50.834-317.812,0.001
		C2.405,311.231,2.869,393.65,90.917,444.484c88.053,50.838,230.342,50.837,317.823-0.002
		C496.216,393.647,495.752,311.229,407.699,260.391z"/>
</g>
<g id="Shadows_1_">
	<path style="fill:#E6E6E6;" d="M437.835,315.372c-7.926-4.576-20.734-4.576-28.608,0c-7.875,4.576-7.833,11.995,0.093,16.571
		c7.926,4.576,20.735,4.576,28.609,0C445.803,327.368,445.761,319.949,437.835,315.372z"/>
	<path style="fill:#E6E6E6;" d="M322.374,239.835l-12.952-7.48c-2.005-1.158-4.475-1.158-6.48,0l-20.242,11.731l-11.531-6.659
		c-2.005-1.158-4.475-1.158-6.48,0L47.625,362.749c-1.44,0.831-1.44,2.91,0,3.741l12.958,7.482c2.005,1.157,4.475,1.157,6.479,0
		l30.92-17.852l12.305,7.104c2.005,1.157,4.475,1.157,6.479,0l37.212-21.568l10.548,6.09c2.005,1.158,4.475,1.158,6.479,0
		l106.521-61.738c1.44-0.831,1.44-2.909,0-3.741l-10.974-6.337l55.82-32.352C323.813,242.745,323.813,240.667,322.374,239.835z"/>
	<path style="fill:#E6E6E6;" d="M366.389,345.746c-25.339-14.629-66.287-14.629-91.462,0c-22.244,12.927-24.716,32.945-7.515,47.523
		c-13.878-0.859-28.261,1.785-38.861,7.945c-18.604,10.812-18.506,28.339,0.219,39.15c18.726,10.812,48.986,10.811,67.591,0
		c14.801-8.601,17.75-21.452,8.912-31.791c21.33,3.085,44.805-0.195,61.416-9.848C391.863,384.095,391.729,360.376,366.389,345.746z
		"/>
</g>
<g id="Plant">
	<g>
		<g>
			<path style="fill:#FFFFFF;" d="M442.767,289.042l-19.19,0.559l-19.19-0.559c-0.827,12.959,1.704,26.166,5.192,32.617l0.014-0.002
				c0.625,1.416,1.88,2.758,3.798,3.865c5.662,3.269,14.813,3.269,20.438,0c1.951-1.133,3.205-2.513,3.796-3.966
				C441.087,315.071,443.59,301.937,442.767,289.042z"/>
			<g>
				<path style="fill:#EBEBEB;" d="M437.102,281.182c7.519,4.341,7.558,11.378,0.089,15.719c-7.47,4.341-19.62,4.341-27.139,0
					c-7.518-4.341-7.558-11.378-0.088-15.719C417.434,276.841,429.584,276.841,437.102,281.182z"/>
			</g>
			<g>
				<path style="fill:#E0E0E0;" d="M434.129,282.909c5.866,3.387,5.897,8.877,0.069,12.264c-5.828,3.387-15.307,3.387-21.173,0
					c-5.866-3.387-5.896-8.877-0.069-12.264C418.784,279.523,428.263,279.523,434.129,282.909z"/>
			</g>
			<g style="opacity:0.15;">
				<path d="M434.129,282.909c5.866,3.387,5.897,8.877,0.069,12.264c-5.828,3.387-15.307,3.387-21.173,0
					c-5.866-3.387-5.896-8.877-0.069-12.264C418.784,279.523,428.263,279.523,434.129,282.909z"/>
			</g>
		</g>
		<g>
			<path style="fill:#BA68C8;" d="M455.128,207.156c-43.245,14.16-43.637,43.091-33.888,63.692c2.459,4.171,9.9,6.41,16.376-19.212
				l-11.359,1.456l13.237-6.709l3.438-10.278l-11.037,0.819l14.009-5.892C451.067,215.42,455.128,207.156,455.128,207.156z"/>
			<path style="opacity:0.2;" d="M455.128,207.156c-43.245,14.16-43.637,43.091-33.888,63.692c2.459,4.171,9.9,6.41,16.376-19.212
				l-11.359,1.456l13.237-6.709l3.438-10.278l-11.037,0.819l14.009-5.892C451.067,215.42,455.128,207.156,455.128,207.156z"/>
			<path style="opacity:0.2;fill:#FFFFFF;" d="M455.128,207.156c-43.245,14.16-43.637,43.091-33.888,63.692
				c2.459,4.171,9.9,6.41,16.376-19.212l-11.359,1.456l13.237-6.709l3.438-10.278l-11.037,0.819l14.009-5.892
				C451.067,215.42,455.128,207.156,455.128,207.156z"/>
			<path style="fill:#FFFFFF;" d="M442.897,214.39c-22.805,17.309-24.864,37.152-18.421,57.869
				C422.196,254.017,419.733,235.573,442.897,214.39z"/>
		</g>
		<g>
			<path style="fill:#BA68C8;" d="M381.882,236.544c42.627,6.002,47.799,32.881,42.142,53.688
				c-1.597,4.293-8.155,7.615-18.443-15.172l10.82-0.531l-13.443-4.049l-4.91-9.001l10.415-1.07l-14.026-3.16
				C387.037,243.566,381.882,236.544,381.882,236.544z"/>
			<path style="opacity:0.2;fill:#FFFFFF;" d="M381.882,236.544c42.627,6.002,47.799,32.881,42.142,53.688
				c-1.597,4.293-8.155,7.615-18.443-15.172l10.82-0.531l-13.443-4.049l-4.91-9.001l10.415-1.07l-14.026-3.16
				C387.037,243.566,381.882,236.544,381.882,236.544z"/>
			<path style="opacity:0.1;" d="M381.882,236.544c42.627,6.002,47.799,32.881,42.142,53.688
				c-1.597,4.293-8.155,7.615-18.443-15.172l10.82-0.531l-13.443-4.049l-4.91-9.001l10.415-1.07l-14.026-3.16
				C387.037,243.566,381.882,236.544,381.882,236.544z"/>
			<path style="fill:#FFFFFF;" d="M394.475,241.249c24.114,12.331,29.329,30.469,26.771,50.833
				C420.338,274.715,419.567,257.129,394.475,241.249z"/>
		</g>
		<g>
			<path style="fill:#BA68C8;" d="M467.604,246.616c-39.092,0.639-46.761,24.286-43.992,43.673
				c0.959,4.048,6.498,7.776,18.321-11.611l-9.693-1.69l12.569-2.145l5.432-7.563l-9.267-2.13l12.995-1.278
				C462.172,252.368,467.604,246.616,467.604,246.616z"/>
			<path style="fill:#FFFFFF;" d="M455.727,249.448c-23.114,8.415-29.844,24.18-29.818,42.82
				C428.671,276.716,431.334,260.952,455.727,249.448z"/>
			<path style="opacity:0.2;fill:#FFFFFF;" d="M467.604,246.616c-39.092,0.639-46.761,24.286-43.992,43.673
				c0.959,4.048,6.498,7.776,18.321-11.611l-9.693-1.69l12.569-2.145l5.432-7.563l-9.267-2.13l12.995-1.278
				C462.172,252.368,467.604,246.616,467.604,246.616z"/>
		</g>
	</g>
</g>
<g id="Device">
	<g>
		<g>
			<path style="fill:#37474F;" d="M61.22,362.56v-0.006c-0.023,0.003-0.048,0.009-0.071,0.011
				C61.174,362.563,61.196,362.563,61.22,362.56z"/>
			<path style="fill:#37474F;" d="M55.888,356.657l-0.453-159.817c-0.015-5.331,3.731-11.82,8.371-14.498L272.29,61.973
				c3.212-1.855,6.009-1.389,7.43,0.844l0.003-0.001c-2.083-3.847-5.593-7.132-12.204-7.335l0.001,0.007
				c-1.305-0.201-2.848,0.129-4.505,1.086L54.532,176.942c-4.64,2.679-8.386,9.167-8.371,14.499l0.453,159.817
				c0.005,1.676,0.382,3.036,1.041,4.031c2.405,4.706,5.967,7.908,13.188,7.298C57.933,362.748,55.9,360.561,55.888,356.657z"/>
			<path style="fill:#455A64;" d="M280.715,66.774c-0.005-1.636-0.366-2.969-0.995-3.958c-1.421-2.233-4.217-2.698-7.43-0.844
				L63.806,182.341c-4.64,2.679-8.386,9.167-8.371,14.498l0.453,159.817c0.011,3.904,2.045,6.091,4.955,5.93
				c0.101-0.006,0.202-0.01,0.306-0.022c0.023-0.003,0.048-0.008,0.071-0.011c0.959-0.117,2-0.471,3.094-1.102l208.484-120.368
				c4.635-2.676,8.386-9.167,8.371-14.493L280.715,66.774z"/>
		</g>
		<g>
			<path style="fill:#BA68C8;" d="M272.313,70.337c0.615-0.355,1.12-0.073,1.122,0.639l0.453,159.817
				c0.002,0.706-0.5,1.576-1.115,1.931L64.289,353.093c-0.62,0.358-1.125,0.07-1.127-0.637l-0.453-159.817
				c-0.002-0.712,0.5-1.576,1.12-1.934L272.313,70.337z"/>
		</g>
	</g>
</g>
<g id="Windows">
	<g>
		<g>
			<path style="fill:#BA68C8;" d="M169.781,89.075c-0.005-1.891-0.685-3.208-1.775-3.808l0.001-0.001l-6.571-3.972l0.001,0.005
				c-1.082-0.776-2.656-0.756-4.411,0.258l-81.711,47.176c-3.254,1.879-5.88,6.426-5.869,10.166l0.333,117.431
				c0.005,1.831,0.644,3.122,1.674,3.747l-0.005,0.003l6.879,4.168l0-0.003c1.072,0.635,2.561,0.554,4.208-0.397l81.711-47.176
				c3.254-1.879,5.88-6.427,5.869-10.166L169.781,89.075z"/>
			<path style="opacity:0.7;fill:#FFFFFF;" d="M169.781,89.075c-0.005-1.891-0.685-3.208-1.775-3.808l0.001-0.001l-6.571-3.972
				l0.001,0.005c-1.082-0.776-2.656-0.756-4.411,0.258l-81.711,47.176c-3.254,1.879-5.88,6.426-5.869,10.166l0.333,117.431
				c0.005,1.831,0.644,3.122,1.674,3.747l-0.005,0.003l6.879,4.168l0-0.003c1.072,0.635,2.561,0.554,4.208-0.397l81.711-47.176
				c3.254-1.879,5.88-6.427,5.869-10.166L169.781,89.075z"/>
			<g>
				<g>
					<path style="fill:#BA68C8;" d="M88.26,137.263c2.353-1.359,4.267-0.268,4.275,2.436c0.008,2.704-1.894,5.998-4.247,7.357
						c-2.353,1.359-4.267,0.268-4.275-2.436C84.005,141.916,85.907,138.622,88.26,137.263z"/>
				</g>
				<g>
					<polygon style="fill:#BA68C8;" points="116.735,122.043 116.746,125.721 96.823,137.224 96.812,133.546 					"/>
				</g>
				<g>
					<polygon style="fill:#BA68C8;" points="107.717,133.618 107.723,135.835 96.837,142.12 96.83,139.904 					"/>
				</g>
				<g>
					<polygon style="fill:#BA68C8;" points="127.629,122.122 127.635,124.339 110.087,134.471 110.081,132.254 					"/>
				</g>
			</g>
			<g>
				<g style="enable-background:new    ;">
					<g>
						<polygon style="fill:#BA68C8;" points="160.156,196.538 160.165,199.637 110.54,228.288 110.532,225.188 						"/>
					</g>
					<g>
						<polygon style="fill:#BA68C8;" points="130.114,203.915 130.122,207.015 117.132,214.515 117.123,211.415 						"/>
					</g>
					<g>
						<polygon style="fill:#BA68C8;" points="134.903,224.788 134.912,227.888 85.287,256.539 85.278,253.439 						"/>
					</g>
					<g>
						<polygon style="fill:#BA68C8;" points="160.176,203.359 160.184,206.465 85.268,249.718 85.259,246.612 						"/>
					</g>
					<g>
						<polygon style="fill:#BA68C8;" points="113.54,213.484 113.549,216.583 93.769,228.003 93.76,224.904 						"/>
					</g>
					<g>
						<polygon style="fill:#BA68C8;" points="106.103,226.702 106.115,230.843 85.248,242.891 85.237,238.749 						"/>
					</g>
				</g>
				<g>
					<path style="fill:#BA68C8;" d="M88.903,225.98c0.427-0.246,0.854-0.305,1.181-0.119c0.654,0.373,0.657,1.585,0.008,2.71
						l-0.423,0.732l-2.351,4.072l-2.366-1.348l-0.425-0.243c-0.654-0.373-0.657-1.585-0.008-2.71
						c0.325-0.563,0.751-0.996,1.178-1.243c0.426-0.246,0.854-0.305,1.181-0.119l0.425,0.236l0.423-0.726
						C88.051,226.66,88.477,226.226,88.903,225.98z"/>
				</g>
			</g>
			<g>
				<g>
					<path style="fill:#BA68C8;" d="M117.448,144.903c3.933-2.27,7.134-0.446,7.147,4.067c0.013,4.519-3.167,10.027-7.1,12.298
						c-3.933,2.27-7.128,0.443-7.141-4.076C110.341,152.679,113.516,147.173,117.448,144.903z"/>
				</g>
				<g>
					<polygon style="fill:#BA68C8;" points="142.358,137.519 158.761,146.867 158.849,177.598 87.738,218.654 87.688,201.266 
						106.268,169.085 117.759,175.633 111.707,190.608 119.71,176.745 					"/>
				</g>
				<g>
					<path style="fill:#FFFFFF;" d="M84.013,153.758l78.181-45.138l0.201,70.994l-78.182,45.138L84.013,153.758z M158.849,177.598
						l-0.087-30.731l-16.404-9.348l-22.647,39.227l-8.003,13.863l6.052-14.975l-11.491-6.548l-18.58,32.181l0.049,17.388
						L158.849,177.598 M117.448,144.903c-3.933,2.271-7.108,7.776-7.095,12.289c0.013,4.519,3.209,6.346,7.141,4.076
						c3.933-2.271,7.113-7.779,7.1-12.298C124.582,144.457,121.381,142.633,117.448,144.903"/>
				</g>
			</g>
			<path style="opacity:0.5;fill:#FFFFFF;" d="M161.436,81.294l0.001,0.005c-1.082-0.776-2.656-0.756-4.411,0.258l-81.711,47.176
				c-1.638,0.946-3.116,2.568-4.179,4.423l6.941,3.997c1.056-1.79,2.495-3.35,4.087-4.269l81.711-47.176
				c1.609-0.929,3.066-1.028,4.132-0.441l0.001-0.001L161.436,81.294z"/>
			<path style="opacity:0.1;" d="M69.445,138.899l0.333,117.431c0.005,1.831,0.644,3.122,1.674,3.747l-0.005,0.003l6.879,4.168
				l0-0.003c-1.045-0.619-1.694-1.918-1.699-3.764L76.294,143.05c-0.005-1.91,0.679-4.029,1.782-5.897l-6.941-3.997
				C70.086,134.986,69.44,137.042,69.445,138.899z"/>
		</g>
		<g>
			<g>
				<path style="fill:#BA68C8;" d="M342.485,53.719c-0.005-1.891-0.685-3.208-1.775-3.808l0.001-0.001l-6.571-3.972l0.001,0.005
					c-1.082-0.776-2.656-0.756-4.412,0.258l-81.711,47.176c-3.254,1.879-5.88,6.426-5.869,10.166l0.333,117.431
					c0.005,1.831,0.644,3.122,1.674,3.747l-0.005,0.003l6.879,4.168l0-0.003c1.072,0.635,2.561,0.554,4.208-0.397l81.711-47.176
					c3.254-1.879,5.88-6.426,5.869-10.166L342.485,53.719z"/>
				<path style="opacity:0.7;fill:#FFFFFF;" d="M342.485,53.719c-0.005-1.891-0.685-3.208-1.775-3.808l0.001-0.001l-6.571-3.972
					l0.001,0.005c-1.082-0.776-2.656-0.756-4.412,0.258l-81.711,47.176c-3.254,1.879-5.88,6.426-5.869,10.166l0.333,117.431
					c0.005,1.831,0.644,3.122,1.674,3.747l-0.005,0.003l6.879,4.168l0-0.003c1.072,0.635,2.561,0.554,4.208-0.397l81.711-47.176
					c3.254-1.879,5.88-6.426,5.869-10.166L342.485,53.719z"/>
				<path style="opacity:0.5;fill:#FFFFFF;" d="M334.139,45.938l0.001,0.005c-1.082-0.776-2.656-0.756-4.412,0.258l-81.711,47.176
					c-1.638,0.946-3.116,2.568-4.179,4.423l6.94,3.997c1.056-1.79,2.495-3.35,4.087-4.269l81.711-47.176
					c1.609-0.929,3.066-1.028,4.132-0.441l0.001-0.001L334.139,45.938z"/>
				<path style="opacity:0.1;" d="M242.148,103.544l0.333,117.431c0.005,1.831,0.644,3.122,1.674,3.747l-0.005,0.003l6.879,4.168
					l0-0.003c-1.045-0.619-1.694-1.918-1.699-3.764l-0.333-117.431c-0.005-1.91,0.679-4.029,1.782-5.897l-6.94-3.997
					C242.789,99.631,242.143,101.687,242.148,103.544z"/>
			</g>
			<g>
				<g>
					<g>
						<path style="fill:#FFFFFF;" d="M292.301,86.727c0.432-0.249,0.786-0.047,0.788,0.449c0.001,0.504-0.351,1.106-0.783,1.356
							l-4.941,2.852l0.008,2.985l4.299-2.482c0.425-0.246,0.786-0.04,0.788,0.464c0.001,0.496-0.357,1.095-0.783,1.341l-4.299,2.482
							l0.009,3.09l5.012-2.894c0.432-0.249,0.786-0.047,0.788,0.449c0.001,0.511-0.351,1.106-0.783,1.356l-5.889,3.4
							c-0.497,0.287-0.885,0.066-0.886-0.505l-0.027-9.459c-0.002-0.579,0.383-1.238,0.881-1.525L292.301,86.727z"/>
					</g>
					<g>
						<path style="fill:#FFFFFF;" d="M313.83,74.132c1.256-0.726,2.272-0.935,3.177-0.765c0.197,0.015,0.387,0.183,0.389,0.582
							c0.001,0.519-0.37,1.148-0.829,1.412c-0.17,0.098-0.314,0.136-0.458,0.114c-0.774-0.126-1.514,0.008-2.299,0.462
							c-1.034,0.597-1.628,1.542-1.626,2.302c0.003,0.917,0.462,1.051,2.387,0.467c2.122-0.638,3.211-0.393,3.216,1.51l0,0.038
							c0.006,2.15-1.463,4.279-3.563,5.492c-1.361,0.786-2.645,1.03-3.767,0.729c-0.197-0.052-0.342-0.247-0.342-0.578
							c-0.001-0.526,0.37-1.148,0.828-1.412c0.242-0.14,0.399-0.148,0.511-0.114c0.833,0.272,1.718,0.191,2.804-0.437
							c1.086-0.627,1.772-1.618,1.769-2.467l0-0.038c-0.002-0.819-0.403-1.033-2.263-0.449c-2.128,0.634-3.335,0.607-3.341-1.513
							C310.418,77.465,311.847,75.276,313.83,74.132z"/>
					</g>
					<g>
						<path style="fill:#FFFFFF;" d="M301.828,81.106c0.445-0.257,0.76-0.107,0.892,0.291l2.28,6.562l2.275-9.236
							c0.13-0.489,0.43-0.971,0.855-1.217c0.471-0.272,0.878-0.085,0.88,0.456c0,0.135-0.045,0.327-0.09,0.466l-2.931,11.235
							c-0.156,0.594-0.482,1.114-0.907,1.36l-0.177,0.102c-0.425,0.245-0.74,0.111-0.899-0.317l-2.253-6.216l-2.204,8.789
							c-0.156,0.61-0.488,1.118-0.914,1.364l-0.17,0.098c-0.432,0.249-0.747,0.115-0.919-0.306l-2.985-7.819
							c-0.046-0.086-0.073-0.222-0.073-0.349c-0.001-0.564,0.409-1.223,0.894-1.503c0.432-0.249,0.76-0.13,0.879,0.231l2.319,6.569
							l2.235-9.169c0.143-0.557,0.443-1.061,0.888-1.318L301.828,81.106z"/>
					</g>
					<g>
						<polygon style="fill:#BA68C8;" points="322.355,156.598 333.145,150.368 333.136,147.03 322.345,153.26 						"/>
						<polygon style="fill:#BA68C8;" points="333.173,160.053 302.005,178.048 302.014,181.387 333.182,163.392 						"/>
						<polygon style="fill:#BA68C8;" points="322.266,125.251 333.056,119.021 333.047,115.682 322.257,121.912 						"/>
						<polygon style="fill:#BA68C8;" points="291.232,181.09 333.164,156.88 333.154,153.542 291.222,177.751 						"/>
						<polygon style="fill:#BA68C8;" points="307.077,140.542 333.075,125.532 333.066,122.194 307.067,137.204 						"/>
						<polygon style="fill:#BA68C8;" points="292.856,155.275 333.094,132.044 333.084,128.706 292.846,151.937 						"/>
						<polygon style="fill:#BA68C8;" points="259.307,202.7 259.316,206.038 296.963,184.303 296.953,180.965 						"/>
						<polygon style="fill:#BA68C8;" points="286.373,180.551 259.288,196.188 259.298,199.527 286.383,183.889 						"/>
						<polygon style="fill:#BA68C8;" points="291.874,174.197 317.447,159.432 317.438,156.094 291.865,170.858 284.719,174.984 
							259.27,189.676 259.28,193.015 284.728,178.322 						"/>
						<polygon style="fill:#BA68C8;" points="284.63,143.636 284.639,146.974 317.358,128.084 317.349,124.746 						"/>
						<polygon style="fill:#BA68C8;" points="300.078,113.192 332.986,94.192 332.977,90.846 300.068,109.846 						"/>
						<polygon style="fill:#BA68C8;" points="304.316,151.837 259.237,177.864 259.246,181.202 304.326,155.175 						"/>
						<polygon style="fill:#BA68C8;" points="287.795,154.853 259.218,171.352 259.228,174.691 287.804,158.192 						"/>
						<polygon style="fill:#BA68C8;" points="302.218,140.003 259.2,164.84 259.209,168.179 302.228,143.342 						"/>
						<polygon style="fill:#BA68C8;" points="279.486,146.605 259.181,158.329 259.191,161.667 279.496,149.944 						"/>
						<polygon style="fill:#BA68C8;" points="322.177,93.903 323.813,92.958 332.968,87.673 332.958,84.334 323.803,89.62 
							322.167,90.564 284.541,112.288 284.55,115.626 						"/>
						<polygon style="fill:#BA68C8;" points="287.724,130.017 259.148,146.516 259.157,149.862 287.734,133.363 						"/>
						<polygon style="fill:#BA68C8;" points="308.207,111.669 259.129,140.004 259.139,143.35 308.217,115.015 						"/>
						<polygon style="fill:#BA68C8;" points="295.219,112.645 259.111,133.492 259.12,136.838 295.229,115.991 						"/>
						<polygon style="fill:#BA68C8;" points="259.326,209.212 259.335,212.55 271.696,205.413 271.686,202.075 						"/>
						<polygon style="fill:#BA68C8;" points="279.398,115.257 259.092,126.981 259.102,130.319 279.407,118.596 						"/>
						<polygon style="fill:#BA68C8;" points="312.883,112.321 333.005,100.704 332.995,97.358 312.873,108.975 						"/>
					</g>
					<g>
						<path style="fill:#FFFFFF;" d="M282.158,92.5c0.484-0.28,0.872-0.059,0.873,0.483l0.027,9.655
							c0.001,0.556-0.364,1.212-0.854,1.495l-0.072,0.042c-0.412,0.238-0.668,0.137-0.911-0.084l-5.172-4.681l0.021,7.294
							c0.001,0.541-0.377,1.204-0.848,1.476c-0.491,0.283-0.878,0.063-0.88-0.479l-0.027-9.64c-0.001-0.556,0.383-1.238,0.887-1.529
							l0.183-0.106c0.432-0.249,0.675-0.141,0.918,0.058l5.021,4.558l-0.02-7.061C281.302,93.438,281.687,92.772,282.158,92.5z"/>
					</g>
				</g>
				<g style="opacity:0.3;">
					<polygon style="fill:#FFFFFF;" points="322.355,156.598 333.145,150.368 333.136,147.03 322.345,153.26 					"/>
					<polygon style="fill:#FFFFFF;" points="333.173,160.053 302.005,178.048 302.014,181.387 333.182,163.392 					"/>
					<polygon style="fill:#FFFFFF;" points="322.266,125.251 333.056,119.021 333.047,115.682 322.257,121.912 					"/>
					<polygon style="fill:#FFFFFF;" points="291.232,181.09 333.164,156.88 333.154,153.542 291.222,177.751 					"/>
					<polygon style="fill:#FFFFFF;" points="307.077,140.542 333.075,125.532 333.066,122.194 307.067,137.204 					"/>
					<polygon style="fill:#FFFFFF;" points="292.856,155.275 333.094,132.044 333.084,128.706 292.846,151.937 					"/>
					<polygon style="fill:#FFFFFF;" points="259.307,202.7 259.316,206.038 296.963,184.303 296.953,180.965 					"/>
					<polygon style="fill:#FFFFFF;" points="286.373,180.551 259.288,196.188 259.298,199.527 286.383,183.889 					"/>
					<polygon style="fill:#FFFFFF;" points="291.874,174.197 317.447,159.432 317.438,156.094 291.865,170.858 284.719,174.984 
						259.27,189.676 259.28,193.015 284.728,178.322 					"/>
					<polygon style="fill:#FFFFFF;" points="284.63,143.636 284.639,146.974 317.358,128.084 317.349,124.746 					"/>
					<polygon style="fill:#FFFFFF;" points="300.078,113.192 332.986,94.192 332.977,90.846 300.068,109.846 					"/>
					<polygon style="fill:#FFFFFF;" points="304.316,151.837 259.237,177.864 259.246,181.202 304.326,155.175 					"/>
					<polygon style="fill:#FFFFFF;" points="287.795,154.853 259.218,171.352 259.228,174.691 287.804,158.192 					"/>
					<polygon style="fill:#FFFFFF;" points="302.218,140.003 259.2,164.84 259.209,168.179 302.228,143.342 					"/>
					<polygon style="fill:#FFFFFF;" points="279.486,146.605 259.181,158.329 259.191,161.667 279.496,149.944 					"/>
					<polygon style="fill:#FFFFFF;" points="322.177,93.903 323.813,92.958 332.968,87.673 332.958,84.334 323.803,89.62 
						322.167,90.564 284.541,112.288 284.55,115.626 					"/>
					<polygon style="fill:#FFFFFF;" points="287.724,130.017 259.148,146.516 259.157,149.862 287.734,133.363 					"/>
					<polygon style="fill:#FFFFFF;" points="308.207,111.669 259.129,140.004 259.139,143.35 308.217,115.015 					"/>
					<polygon style="fill:#FFFFFF;" points="295.219,112.645 259.111,133.492 259.12,136.838 295.229,115.991 					"/>
					<polygon style="fill:#FFFFFF;" points="259.326,209.212 259.335,212.55 271.696,205.413 271.686,202.075 					"/>
					<polygon style="fill:#FFFFFF;" points="279.398,115.257 259.092,126.981 259.102,130.319 279.407,118.596 					"/>
					<polygon style="fill:#FFFFFF;" points="312.883,112.321 333.005,100.704 332.995,97.358 312.873,108.975 					"/>
				</g>
			</g>
		</g>
		<g>
			<path style="fill:#BA68C8;" d="M251.764,135.031c-0.005-1.891-0.685-3.208-1.776-3.808l0.001-0.001l-6.571-3.972l0.001,0.005
				c-1.082-0.776-2.656-0.756-4.412,0.258l-81.711,47.176c-3.254,1.879-5.88,6.426-5.869,10.166l0.333,131.595
				c0.005,1.831,0.644,3.122,1.674,3.747l-0.005,0.002l6.879,4.168l0-0.003c1.072,0.634,2.561,0.554,4.209-0.397l81.711-47.176
				c3.254-1.879,5.88-6.426,5.869-10.166L251.764,135.031z"/>
			<path style="opacity:0.6;fill:#FFFFFF;" d="M251.764,135.031c-0.005-1.891-0.685-3.208-1.776-3.808l0.001-0.001l-6.571-3.972
				l0.001,0.005c-1.082-0.776-2.656-0.756-4.412,0.258l-81.711,47.176c-3.254,1.879-5.88,6.426-5.869,10.166l0.333,131.595
				c0.005,1.831,0.644,3.122,1.674,3.747l-0.005,0.002l6.879,4.168l0-0.003c1.072,0.634,2.561,0.554,4.209-0.397l81.711-47.176
				c3.254-1.879,5.88-6.426,5.869-10.166L251.764,135.031z"/>
			<g>
				<polygon style="fill:#BA68C8;" points="225.128,151.682 225.151,159.769 181.354,185.055 181.33,176.969 				"/>
			</g>
			<path style="opacity:0.5;fill:#FFFFFF;" d="M243.418,127.25l0.001,0.005c-1.082-0.776-2.656-0.756-4.412,0.258l-81.711,47.176
				c-1.638,0.946-3.116,2.568-4.179,4.423l6.94,3.997c1.056-1.79,2.495-3.35,4.087-4.269l81.711-47.176
				c1.609-0.929,3.066-1.028,4.132-0.441l0.001-0.001L243.418,127.25z"/>
			<path style="opacity:0.1;" d="M151.427,184.855l0.333,131.595c0.005,1.831,0.644,3.122,1.674,3.747l-0.005,0.002l6.879,4.168
				l0-0.003c-1.045-0.619-1.694-1.918-1.699-3.764l-0.333-131.595c-0.005-1.91,0.68-4.029,1.782-5.897l-6.94-3.997
				C152.068,180.942,151.422,182.998,151.427,184.855z"/>
			<polygon style="fill:#FFFFFF;" points="244.176,154.575 165.995,199.713 166.196,297.684 244.378,252.546 			"/>
			<g>
				<g>
					<path style="fill:#BA68C8;" d="M225.605,269.654c3.296-1.903,5.975-0.377,5.985,3.411c0.011,3.788-2.65,8.397-5.947,10.3
						l-30.276,17.48c-3.291,1.9-5.975,0.377-5.986-3.411c-0.011-3.788,2.656-8.4,5.947-10.3L225.605,269.654z"/>
				</g>
				<g>
					<g>
						<path style="fill:#FFFFFF;" d="M202.238,290.5c0.364-0.066,0.613,0.027,0.614,0.509l0,0.012
							c0.002,0.631-0.451,1.231-1.139,1.628l-1.155,0.667c-0.152,0.088-0.272,0.024-0.272-0.155l-0.008-2.919
							c0-0.175,0.118-0.38,0.27-0.468l1.112-0.642c0.354-0.204,0.632-0.254,0.808-0.154c0.136,0.081,0.209,0.229,0.21,0.469l0,0.011
							C202.681,289.879,202.469,290.23,202.238,290.5z M202.313,291.264v-0.008c-0.001-0.3-0.21-0.359-0.637-0.112l-0.86,0.497
							l0.003,0.973l0.9-0.52C202.09,291.881,202.314,291.583,202.313,291.264 M200.813,290.174l0.003,0.943l0.741-0.428
							c0.347-0.201,0.582-0.496,0.581-0.819v-0.008c-0.001-0.281-0.197-0.34-0.544-0.139L200.813,290.174"/>
					</g>
					<g>
						<path style="fill:#FFFFFF;" d="M205.786,286.723c0.149-0.086,0.268-0.018,0.269,0.153l0.005,1.73
							c0.003,1.057-0.515,1.889-1.322,2.355c-0.804,0.464-1.315,0.226-1.318-0.8l-0.005-1.76c-0.001-0.171,0.118-0.377,0.27-0.465
							c0.152-0.088,0.272-0.02,0.272,0.151l0.005,1.734c0.002,0.658,0.297,0.837,0.78,0.559c0.483-0.279,0.777-0.776,0.775-1.43
							l-0.005-1.76C205.512,287.018,205.631,286.813,205.786,286.723z"/>
					</g>
					<g>
						<path style="fill:#FFFFFF;" d="M209.075,284.821c0.159-0.092,0.265-0.016,0.266,0.151c0,0.084-0.033,0.179-0.072,0.263
							l-1.051,2.267l0.003,1.11c0,0.171-0.118,0.377-0.274,0.466c-0.149,0.086-0.268,0.018-0.269-0.153l-0.003-1.095l-1.067-1.063
							c-0.036-0.04-0.063-0.097-0.063-0.18c0-0.167,0.118-0.369,0.274-0.459c0.119-0.069,0.199-0.039,0.265,0.034l0.864,0.929
							l0.869-1.934C208.883,285.008,208.962,284.886,209.075,284.821z"/>
					</g>
					<g>
						<path style="fill:#FFFFFF;" d="M213.614,282.204c0.149-0.086,0.268-0.018,0.269,0.149l0.009,2.98
							c0,0.171-0.112,0.373-0.264,0.461l-0.02,0.012c-0.129,0.074-0.209,0.044-0.282-0.028l-1.595-1.44l0.006,2.247
							c0.001,0.167-0.118,0.373-0.264,0.457c-0.149,0.086-0.272,0.02-0.272-0.147l-0.008-2.973
							c-0.001-0.171,0.122-0.386,0.274-0.474l0.056-0.033c0.132-0.076,0.209-0.044,0.285,0.018l1.548,1.406l-0.006-2.178
							C213.349,282.494,213.468,282.288,213.614,282.204z"/>
					</g>
					<g>
						<path style="fill:#FFFFFF;" d="M216.161,280.699c0.946-0.546,1.61-0.103,1.613,0.893c0.003,1.011-0.663,2.233-1.613,2.781
							c-0.946,0.546-1.61,0.1-1.613-0.896C214.546,282.469,215.212,281.247,216.161,280.699z M217.205,281.943l0-0.011
							c-0.002-0.688-0.44-1.01-1.052-0.657s-1.037,1.162-1.035,1.85l0,0.011c0.002,0.688,0.437,1.008,1.052,0.653
							C216.782,283.436,217.207,282.631,217.205,281.943"/>
					</g>
					<g>
						<path style="fill:#FFFFFF;" d="M220.372,278.29c0.136-0.078,0.232-0.031,0.272,0.094l0.705,2.022l0.704-2.851
							c0.039-0.152,0.132-0.301,0.261-0.375c0.149-0.086,0.272-0.023,0.272,0.144c0,0.038-0.013,0.099-0.026,0.141l-0.905,3.466
							c-0.049,0.185-0.148,0.345-0.28,0.421l-0.053,0.031c-0.132,0.076-0.232,0.039-0.279-0.098l-0.695-1.918l-0.682,2.712
							c-0.049,0.192-0.148,0.344-0.281,0.421l-0.053,0.03c-0.132,0.077-0.232,0.039-0.285-0.094l-0.918-2.413
							c-0.017-0.025-0.023-0.067-0.024-0.108c0-0.171,0.128-0.379,0.277-0.465c0.132-0.077,0.232-0.039,0.269,0.073l0.718,2.026
							l0.688-2.826c0.046-0.175,0.138-0.331,0.274-0.41L220.372,278.29z"/>
					</g>
				</g>
			</g>
			<g>
				<polygon style="fill:#BA68C8;" points="229.356,190.873 217.735,184.219 181.286,205.06 177.944,259.228 195.98,269.593 
					232.428,248.751 				"/>
				<polygon style="opacity:0.2;" points="181.286,205.06 177.944,259.228 195.98,269.593 192.907,211.714 				"/>
				<polygon style="opacity:0.31;fill:#FFFFFF;" points="229.356,190.873 217.735,184.219 181.286,205.06 177.944,259.228 
					195.98,269.593 232.428,248.751 				"/>
			</g>
			<g>
				<g>
					<g>
						<path style="fill:#BA68C8;" d="M196.771,224.111l15.998-9.236c-1.355,4.296-4.417,8.517-7.978,10.574
							C201.221,227.509,198.154,226.826,196.771,224.111z"/>
					</g>
					<g>
						<path style="fill:#BA68C8;" d="M212.769,214.86l15.027-8.675c-1.273,4.035-4.148,8-7.494,9.931
							C216.949,218.051,214.067,217.41,212.769,214.86z"/>
					</g>
					<g>
						<path style="fill:#BA68C8;" d="M227.795,206.169l15.994-9.234c-1.354,4.295-4.415,8.515-7.976,10.571
							C232.244,209.566,229.178,208.883,227.795,206.169z"/>
					</g>
					<g>
						<path style="fill:#BA68C8;" d="M243.765,196.933l15.629-9.023c-1.324,4.197-4.315,8.321-7.794,10.329
							C248.113,200.252,245.116,199.585,243.765,196.933z"/>
					</g>
					<g>
						<path style="fill:#BA68C8;" d="M259.394,187.903l15.209-8.781c-1.288,4.084-4.199,8.097-7.585,10.052
							C263.625,191.133,260.709,190.484,259.394,187.903z"/>
					</g>
				</g>
				<g style="opacity:0.1;">
					<g>
						<path style="fill:#FFFFFF;" d="M196.771,224.111l15.998-9.236c-1.355,4.296-4.417,8.517-7.978,10.574
							C201.221,227.509,198.154,226.826,196.771,224.111z"/>
					</g>
					<g>
						<path style="fill:#FFFFFF;" d="M212.769,214.86l15.027-8.675c-1.273,4.035-4.148,8-7.494,9.931
							C216.949,218.051,214.067,217.41,212.769,214.86z"/>
					</g>
					<g>
						<path style="fill:#FFFFFF;" d="M227.795,206.169l15.994-9.234c-1.354,4.295-4.415,8.515-7.976,10.571
							C232.244,209.566,229.178,208.883,227.795,206.169z"/>
					</g>
					<g>
						<path style="fill:#FFFFFF;" d="M243.765,196.933l15.629-9.023c-1.324,4.197-4.315,8.321-7.794,10.329
							C248.113,200.252,245.116,199.585,243.765,196.933z"/>
					</g>
					<g>
						<path style="fill:#FFFFFF;" d="M259.394,187.903l15.209-8.781c-1.288,4.084-4.199,8.097-7.585,10.052
							C263.625,191.133,260.709,190.484,259.394,187.903z"/>
					</g>
				</g>
				<g>
					<polygon style="fill:#BA68C8;" points="165.995,199.713 196.77,224.127 212.769,214.874 181.73,190.629 					"/>
					<polygon style="fill:#BA68C8;" points="196.77,181.946 227.795,206.184 243.789,196.934 212.777,172.704 					"/>
					<polygon style="fill:#BA68C8;" points="181.73,190.629 212.769,214.874 227.795,206.184 196.77,181.946 					"/>
					<polygon style="fill:#BA68C8;" points="228.395,163.686 212.777,172.704 243.789,196.934 259.394,187.91 					"/>
					<polygon style="fill:#BA68C8;" points="274.606,179.112 244.176,154.575 228.395,163.686 259.394,187.91 					"/>
				</g>
				<g>
					<polygon style="opacity:0.4;fill:#FFFFFF;" points="166.003,199.808 196.777,224.222 212.777,214.969 181.738,190.723 					"/>
					<polygon style="opacity:0.4;fill:#FFFFFF;" points="196.77,181.946 227.795,206.184 243.789,196.934 212.777,172.704 					"/>
					<polygon style="opacity:0.3;fill:#FFFFFF;" points="181.73,190.629 212.769,214.874 227.795,206.184 196.77,181.946 					"/>
					<polygon style="opacity:0.3;fill:#FFFFFF;" points="228.395,163.686 212.777,172.704 243.789,196.934 259.394,187.91 					"/>
					<polygon style="opacity:0.4;fill:#FFFFFF;" points="274.606,179.112 244.176,154.575 228.395,163.686 259.394,187.91 					"/>
				</g>
			</g>
		</g>
	</g>
</g>
<g id="Puff">
	<g>
		<path style="fill:#BA68C8;" d="M287.17,295.34c-8.642,6.001-18.375,10.152-25.591,18.198
			c-13.479,15.027-13.794,39.205-3.207,56.393c10.587,17.188,30.276,27.515,50.324,29.878c21.034,2.48,43.107-3.332,59.609-16.609
			c16.502-13.276,27.001-34.019,26.993-55.199c-0.008-21.18-10.856-42.27-28.597-53.839c-16.185-10.556-39.441-13.566-55.68-1.489
			c-8.21,6.106-13.684,15.119-21.873,21.242C288.496,294.403,287.836,294.877,287.17,295.34z"/>
		<path style="opacity:0.3;fill:#FFFFFF;" d="M287.17,295.34c-8.642,6.001-18.375,10.152-25.591,18.198
			c-13.479,15.027-13.794,39.205-3.207,56.393c10.587,17.188,30.276,27.515,50.324,29.878c21.034,2.48,43.107-3.332,59.609-16.609
			c16.502-13.276,27.001-34.019,26.993-55.199c-0.008-21.18-10.856-42.27-28.597-53.839c-16.185-10.556-39.441-13.566-55.68-1.489
			c-8.21,6.106-13.684,15.119-21.873,21.242C288.496,294.403,287.836,294.877,287.17,295.34z"/>
		<g>
			<path style="fill:#FFFFFF;" d="M384.006,325.096c-0.354-18.022-8.921-35.563-22.916-46.922
				c-8.562-6.949-18.971-11.428-29.816-13.094c-2.012,0.198-4.004,0.532-5.963,1c12.584,0.737,24.918,5.378,34.751,13.359
				c13.628,11.06,21.969,28.14,22.313,45.688c0.387,19.711-9.255,39.803-25.792,53.744c-12.96,10.927-30.176,18.172-49.099,20.779
				c0.403,0.054,0.807,0.11,1.211,0.158c1.701,0.201,3.409,0.341,5.121,0.434c16.812-3.261,32.037-10.191,43.818-20.124
				C374.543,365.863,384.402,345.293,384.006,325.096z"/>
		</g>
	</g>
</g>
<g id="Character">
	<g>
		<path style="opacity:0.1;" d="M290.689,383.386c0.02-0.143,0.04-0.286,0.06-0.43c1.374-9.628,8.88-17.118,18.432-18.951
			c8.32-1.597,16.36-4.658,23.61-9.043c5.16-3.12,10.034-6.944,15.822-8.635c5.341-1.561,11.991-1.32,17.053,0.99
			c-4.865-5.107-13.203-7.355-19.867-5.046c4.613-7.06,8.671-14.666,10.261-22.948c1.59-8.282,0.46-17.371-4.534-24.167
			c-4.241-5.771-11.143-9.499-18.294-9.881c-7.151-0.382-14.412,2.588-19.244,7.874c-4.946,5.41-7.734,13.024-10.983,19.596
			c-2.333,4.72-4.746,9.55-8.592,13.147c-5.803,5.428-14.148,7.385-20.164,12.577c-6.822,5.887-9.764,15.301-9.795,24.312
			c-0.021,6.081,1.124,12.066,2.64,17.975c6.908,6.722,15.456,11.793,24.672,15.086C290.374,391.923,290.119,387.54,290.689,383.386
			z"/>
		<g>
			<g>
				<g>
					<path style="fill:#FFA8A7;" d="M268.66,376.799c0.88,3.509,1.054,9.836,1.054,9.836l2.333-0.879
						c2.262-0.852,4.814-0.271,6.484,1.476l0.115,0.12c0.868,0.908,2.297,0.973,3.243,0.147l0,0
						c0.492-0.429,0.783-1.043,0.803-1.696l0.313-9.932L268.66,376.799z"/>
					<path style="fill:#37474F;" d="M277.668,413.711c-4.842,5.18-13.758,9.707-20.236,5.289l0.727,1.648
						c6.478,4.418,15.394-0.109,20.236-5.289c4.842-5.18,1.7-8.768,6.058-13.363c2.842-2.813,3.767-5.596,3.767-5.596
						c-0.194-0.495-0.379-1.14-0.607-1.88c-0.575,1.293-1.862,3.823-3.887,5.828C279.368,404.943,282.51,408.531,277.668,413.711z"
						/>
					<path style="fill:#455A64;" d="M285.227,389.109c-1.065-1.673-1.419-2.83-1.522-3.532c-0.088-0.6-0.445-1.121-0.959-1.44
						l-0.053,1.666c-0.021,0.652-0.312,1.267-0.803,1.696c-0.946,0.826-2.375,0.761-3.243-0.147l-0.115-0.12
						c-1.67-1.748-4.222-2.329-6.484-1.476l-2.371,0.893c-0.725,0.273-1.196,0.97-1.179,1.745
						c0.152,6.792-3.021,15.812-6.347,20.768c-3.421,1.417-6.376,6.079-4.868,9.497l0.15,0.341
						c6.478,4.418,15.394-0.109,20.236-5.289c4.842-5.18,1.7-8.768,6.058-13.363c2.026-2.005,3.313-4.536,3.887-5.828
						C287.157,393.035,286.519,391.14,285.227,389.109z"/>
					<g>
						<path style="fill:#FFFFFF;" d="M275.754,398.914c0.402,0.203,0.895,0.032,1.098-0.37c0.201-0.397,0.059-0.894-0.337-1.098
							c-3.725-1.925-6.92-1.286-9.301,0.015c-0.145,0.535-0.298,1.067-0.462,1.596C269.495,397.663,272.278,397.156,275.754,398.914
							z"/>
						<path style="fill:#FFFFFF;" d="M276.946,395.242c0.402,0.203,0.895,0.032,1.098-0.37c0.201-0.397,0.058-0.894-0.337-1.098
							c-3.704-1.914-7.101-1.334-9.678,0.077c-0.097,0.553-0.212,1.109-0.335,1.666
							C270.519,394.026,273.365,393.431,276.946,395.242z"/>
						<path style="fill:#FFFFFF;" d="M274.445,402.567c0.402,0.203,0.895,0.032,1.098-0.37c0.201-0.397,0.059-0.894-0.337-1.098
							c-3.622-1.872-6.743-1.318-9.103-0.091c-0.206,0.576-0.423,1.139-0.646,1.695
							C268.196,401.315,270.975,400.813,274.445,402.567z"/>
						<path style="fill:#FFFFFF;" d="M262.15,409.162c-3.421,1.417-6.376,6.079-4.868,9.497l0.15,0.341
							c6.382,4.353,15.122,0.021,20.01-5.061C273.366,405.944,264.844,407.938,262.15,409.162z"/>
						<path style="fill:#FFFFFF;" d="M273.013,406.136c0.402,0.203,0.895,0.032,1.098-0.37c0.201-0.397,0.058-0.894-0.337-1.098
							c-3.631-1.877-6.759-1.316-9.121-0.082c-0.289,0.634-0.588,1.24-0.892,1.824C266.586,404.92,269.431,404.325,273.013,406.136z
							"/>
					</g>
				</g>
				<g>
					<path style="fill:#FFA8A7;" d="M258.482,396.545c-0.611,3.566-3.006,9.424-3.006,9.424l2.49,0.137
						c2.414,0.133,4.514,1.695,5.337,3.968l0.057,0.156c0.427,1.181,1.709,1.817,2.908,1.443l0,0
						c0.623-0.194,1.137-0.639,1.419-1.227l4.295-8.96L258.482,396.545z"/>
					<path style="fill:#37474F;" d="M251.825,433.953c-6.521,2.785-16.506,3.328-20.649-3.328v1.801
						c4.143,6.657,14.128,6.113,20.649,3.328c6.521-2.785,5.094-7.336,10.936-9.781c3.736-1.426,5.706-3.6,5.706-3.6
						c0.023-0.531,0.113-1.196,0.203-1.965c-1.047,0.951-3.246,2.747-5.909,3.764C256.92,426.617,258.346,431.168,251.825,433.953z"
						/>
					<path style="fill:#455A64;" d="M268.671,414.494c-0.299-1.961-0.156-3.162,0.033-3.846c0.161-0.584,0.046-1.205-0.296-1.705
						l-0.721,1.504c-0.282,0.588-0.796,1.033-1.419,1.227c-1.199,0.374-2.48-0.262-2.908-1.443l-0.057-0.156
						c-0.823-2.273-2.923-3.835-5.337-3.968l-2.53-0.139c-0.774-0.043-1.486,0.405-1.783,1.121
						c-2.603,6.276-9.146,13.248-14.19,16.44c-3.702-0.085-8.287,2.989-8.287,6.724v0.372c4.143,6.657,14.128,6.113,20.649,3.328
						c6.521-2.785,5.094-7.336,10.936-9.781c2.663-1.017,4.862-2.813,5.909-3.764C268.851,418.866,269.033,416.874,268.671,414.494z
						"/>
					<g>
						<path style="fill:#FFFFFF;" d="M256.046,419.642c0.286,0.348,0.806,0.39,1.154,0.104c0.344-0.282,0.414-0.794,0.135-1.141
							c-2.631-3.264-5.812-3.969-8.516-3.741c-0.348,0.431-0.704,0.856-1.067,1.274
							C250.825,415.971,253.576,416.631,256.046,419.642z"/>
						<path style="fill:#FFFFFF;" d="M258.619,416.763c0.286,0.348,0.806,0.39,1.154,0.104c0.344-0.282,0.414-0.794,0.135-1.141
							c-2.617-3.246-5.959-4.087-8.886-3.836c-0.312,0.466-0.641,0.929-0.979,1.389
							C253.229,413.057,256.073,413.661,258.619,416.763z"/>
						<path style="fill:#FFFFFF;" d="M253.374,422.456c0.286,0.348,0.806,0.39,1.154,0.104c0.344-0.282,0.414-0.794,0.135-1.141
							c-2.559-3.174-5.638-3.928-8.292-3.757c-0.421,0.444-0.847,0.872-1.275,1.29C248.162,418.788,250.908,419.451,253.374,422.456
							z"/>
						<path style="fill:#FFFFFF;" d="M239.463,423.528c-3.702-0.085-8.287,2.989-8.287,6.724v0.372
							c4.082,6.558,13.828,6.123,20.351,3.445C251.024,425.111,242.422,423.495,239.463,423.528z"/>
						<path style="fill:#FFFFFF;" d="M250.623,425.143c0.286,0.348,0.806,0.39,1.154,0.104c0.344-0.282,0.414-0.794,0.135-1.141
							c-2.565-3.182-5.653-3.932-8.312-3.756c-0.52,0.463-1.038,0.898-1.552,1.309C245.234,421.437,248.077,422.041,250.623,425.143
							z"/>
					</g>
				</g>
				<path style="fill:#37474F;" d="M296.791,311.725l-32.64,18.185c-6.066,3.38-9.298,10.255-8.03,17.082l6.335,34.117
					l-5.196,16.506c4.483,6.011,14.774,6.317,14.774,6.317c5.739-11.513,9.951-16.404,13.211-26.049s5.434-16.302,5.434-16.302
					l27.108-7.408c12.672-3.463,22.017-14.276,23.488-27.33c0.462-4.099,0.483-6.898,0.483-6.898L296.791,311.725z"/>
				<path style="opacity:0.2;" d="M297.038,320.895c-0.008,3.607,1.311,7.202,3.65,9.948l-23.032,14.417
					c-3.38,2.116-5.883,5.38-7.049,9.193l-8.152,26.657l7.353-29.688c0.846-3.415,2.995-6.362,5.987-8.212l21.267-13.145
					C294.889,324.63,297.038,320.895,297.038,320.895z"/>
			</g>
			<g>
				<g>
					<path style="fill:#FFA8A7;" d="M272.415,276.447l-4.568,4.429c-4.692-5.987-10.989-10.036-16.498-18.436
						c-1.585-2.01-1.419-6.017-2.497-8.06c-0.846-1.603-2.321-4.01-2.945-5.356c-0.231-0.499-0.863-0.718-1.309-0.395
						c-1.568,1.136-0.743,3.854,0.082,6.716c0.965,3.349-4.087-1.192-4.768-1.958c-3.207-2.98-5.959-10.293-8.145-9.564
						c-2.186,0.728-0.454,4.37-0.454,4.37c-2.01,0.423-1.249,3.633-1.249,3.633c-1.192,2.1-0.851,5.335,1.589,8.344
						c1.773,2.185,6.571,5.18,9.064,6.654c1.04,0.615,1.924,1.45,2.598,2.452l15.68,23.3c3.035,4.51,9.227,5.561,13.581,2.305
						l8.515-6.369L272.415,276.447z"/>
					<path style="fill:#455A64;" d="M298.952,255.882c-8.687-0.383-20.471,13.709-27.112,20.35
						c0.511,8.117,9.252,13.452,9.252,13.452c9.876-6.754,17.86-13.963,17.86-13.963V255.882z"/>
				</g>
				<path style="fill:#BA68C8;" d="M342.279,322.491c-5.789,5.563-33.602,6.584-47.792-6.925c1.362-9.536,0.908-19.752,0-29.856
					c-0.908-10.103-6.811-27.775,4.465-29.829c15.06-2.941,24.899-2.714,34.964,2.962
					C344.663,276.743,343.187,303.534,342.279,322.491z"/>
				<path style="opacity:0.2;" d="M342.279,322.491c-5.789,5.563-33.602,6.584-47.792-6.925c1.362-9.536,0.908-19.752,0-29.856
					c-0.908-10.103-6.811-27.775,4.465-29.829c15.06-2.941,24.899-2.714,34.964,2.962
					C344.663,276.743,343.187,303.534,342.279,322.491z"/>
				<g>
					<path style="fill:#455A64;" d="M272.389,320.084l-7.197-29.078c-0.297-1.198-1.068-2.224-2.137-2.842l-37.345-21.561
						c-0.146-0.084-0.297-0.114-0.444-0.116l0.001-0.009c-1.249-0.141-1.981,1.068-2.126,1.493l0.005,0.001
						c-0.083,0.176-0.116,0.379-0.062,0.598l7.197,29.078c0.297,1.198,1.068,2.224,2.137,2.842l37.345,21.561
						c0.203,0.117,0.417,0.138,0.615,0.101l-0.002,0.008c0.787-0.067,1.668-0.811,1.955-1.484c0.011-0.025,0.024-0.048,0.033-0.073
						c0.003-0.008,0.008-0.016,0.011-0.024l-0.006,0C272.418,320.427,272.433,320.26,272.389,320.084z"/>
					<path style="opacity:0.2;" d="M271.099,321.046l-7.196-29.078c-0.297-1.198-1.068-2.224-2.137-2.842l-37.345-21.561
						c-0.498-0.288-1.063-0.041-1.274,0.407c-0.083,0.176-0.116,0.379-0.062,0.598l7.197,29.078
						c0.297,1.198,1.068,2.224,2.137,2.842l37.345,21.561c0.203,0.117,0.417,0.138,0.615,0.101
						C270.856,322.062,271.235,321.595,271.099,321.046z"/>
				</g>
				<g>
					<path style="fill:#FFA8A7;" d="M314.466,289.684l-5.903,14.644c-9.309-0.568-21.001,3.633-27.812,3.065
						c-2.724-0.37-4.853-3.15-12.497-4.02l1.218,4.92c-4.877,0.984-10.781-5.819-13.279-4.721c-2.497,1.097,1.022,3.633,1.022,3.633
						c-0.908,3.179,2.018,5.168,2.018,5.168c0.025,3.081,2.834,5.679,9.939,7.357c3.746,0.757,7.79-0.718,11.255-0.718
						c2.657,0,24.855-0.49,35.066-0.718c3.125-0.07,5.938-1.909,7.258-4.743l7.779-16.714L314.466,289.684z"/>
					<path style="fill:#455A64;" d="M328.035,256.139c-6.871,6.982-15.158,34.908-15.158,34.908
						c4.654,7.606,17.822,7.833,17.822,7.833C344.322,266.299,343.192,259.372,328.035,256.139z"/>
				</g>
				<g>
					<path style="fill:#FFA8A7;" d="M326.717,233.13c-0.396-0.915-1.116-1.705-2.014-2.107c-0.195-0.088-0.389-0.18-0.601-0.225
						c-1.201-0.258-2.482,0.253-3.352,1.12c-0.869,0.868-1.368,2.048-1.633,3.247c-0.265,1.199-0.314,2.434-0.406,3.659
						c-0.164,2.173-0.526,4.321-1.007,6.446c-0.531,2.34-2.052,4.336-4.175,5.454l-0.144,0.076c-2.851,1.505-6.34,2.337-9.747,2.589
						l0.015,2.891v0.809c-2.688,3.659-3.439,10.651,3.645,8.562c7.084-2.088,11.699-6.802,11.699-11.434
						c0.04-1.954,0.095-4.467,0.145-6.714c0.067-3.023,0.125-5.556,0.125-5.556c0.564,0.738,1.581,1.226,2.587,1.353
						c0.471,0.059,0.94,0.047,1.359-0.069c1.314-0.364,2.383-1.382,3.024-2.585c0.641-1.203,0.893-2.579,0.968-3.941
						C327.272,235.493,327.198,234.244,326.717,233.13z"/>
					<path style="fill:#37474F;" d="M324.417,220.338c-2.142-2.669-5.572-2.955-5.572-2.955l-29.098,2.7
						c-3.355,7.111-0.676,11.811-0.676,11.811c-0.453,10.845-0.829,17.739,3.94,20.022c2.597,1.244,6.553,1.775,10.627,1.473
						c3.406-0.252,6.896-1.085,9.747-2.589l0.155-0.082c2.128-1.123,3.64-3.13,4.171-5.478c0.478-2.115,0.837-4.254,1-6.416
						c0.092-1.225,0.142-2.459,0.407-3.659c0.265-1.199,0.764-2.38,1.633-3.247c0.869-0.868,2.151-1.378,3.352-1.12
						c0.212,0.045,0.405,0.137,0.601,0.225C325.531,226.205,325.775,222.029,324.417,220.338z"/>
					<path style="fill:#FFA8A7;" d="M313.762,221.167c-0.638,1.969-0.249,4.124,0.383,6.095c0.632,1.971,1.504,3.879,1.849,5.92
						c0.341,2.016,0.135,4.157-0.799,5.975c-0.934,1.819-2.639,3.276-4.639,3.701c-3.124,0.664-6.179-1.16-9.315-1.768
						c-2.911-0.564-6.136,0.047-8.758,1.549c-0.988,0.566-2.221-0.073-2.289-1.21c-0.372-6.242-0.367-16.022,0.557-20.618
						L313.762,221.167z"/>
					<path style="fill:#37474F;" d="M291.244,215.515c-1.206-0.838-2.411-1.675-3.617-2.513c-0.824,2.373-0.194,5.165,1.383,7.121
						c1.576,1.956,3.93,3.18,6.376,3.754c2.446,0.574,4.994,0.545,7.498,0.342c3.663-0.297,7.296-0.961,10.827-1.978
						c1.561-0.449,3.178-1.016,4.254-2.233c1.574-1.78,1.525-4.642,0.223-6.629c-1.302-1.988-3.627-3.145-5.981-3.464
						c-2.396-0.325-4.822,0.127-7.2,0.568c-2.378,0.441-4.809,0.875-7.201,0.517c-2.392-0.358-4.778-1.657-5.807-3.845
						C289.961,210.46,291.244,215.515,291.244,215.515z"/>
					<g>
						<polygon style="fill:#F28F8F;" points="300.372,232.235 295.066,238.662 299.935,240.383 						"/>
						<path style="fill:#F28F8F;" d="M304.389,243.574c-1.366,0.42-2.732,0.84-4.099,1.26c0.42,0.952,1.759,1.546,2.762,1.27
							C304.056,245.829,304.514,244.607,304.389,243.574z"/>
						<path style="opacity:0.3;" d="M304.389,243.574c-1.366,0.42-2.732,0.84-4.099,1.26c0.42,0.952,1.759,1.546,2.762,1.27
							C304.056,245.829,304.514,244.607,304.389,243.574z"/>
						<path style="fill:#F28F8F;" d="M301.71,246.024c0.446,0.152,0.922,0.196,1.342,0.081c0.788-0.216,1.234-1.016,1.331-1.85
							c-0.541-0.082-1.111,0.011-1.583,0.289C302.257,244.864,301.868,245.414,301.71,246.024z"/>
						<path style="fill:#263238;" d="M307.591,233.645c-0.043,0.804-0.73,1.421-1.534,1.378c-0.804-0.043-1.421-0.73-1.377-1.534
							c0.043-0.804,0.73-1.421,1.534-1.377C307.018,232.154,307.634,232.841,307.591,233.645z"/>
						<path style="fill:#263238;" d="M295.396,232.517c-0.043,0.804-0.73,1.42-1.534,1.377c-0.804-0.043-1.42-0.73-1.377-1.534
							c0.043-0.804,0.73-1.421,1.534-1.377C294.823,231.026,295.439,231.713,295.396,232.517z"/>
						<path style="fill:#263238;" d="M294.291,226.648c-1.116,0.686-2.231,1.372-3.346,2.058c-0.278-0.782,0.083-1.76,0.753-2.25
							C292.368,225.965,293.629,226.146,294.291,226.648z"/>
						<path style="fill:#263238;" d="M306.764,227.143c1.035,0.801,2.071,1.603,3.107,2.405c0.36-0.748,0.106-1.759-0.508-2.318
							C308.749,226.67,307.476,226.715,306.764,227.143z"/>
					</g>
					<path style="opacity:0.2;" d="M315.347,250.602c0.806-1.034,1.394-2.251,1.697-3.525c-0.758,1.54-1.969,2.832-3.515,3.647
						c-0.049,0.026-0.097,0.051-0.144,0.076c-2.851,1.505-6.34,2.337-9.747,2.589l0.013,2.494c1.96-0.207,3.907-0.546,5.76-1.209
						C311.701,253.854,313.852,252.52,315.347,250.602z"/>
				</g>
				<path style="fill:#E0E0E0;" d="M323.459,234.088c-1.22,0-2.239,1.038-2.473,2.418c-0.18,1.056-0.446,2.106-0.909,3.073
					c-1.769,3.691-5.079,5.363-7.596,5.969c-0.537,0.129-0.911,0.603-0.911,1.155c0,0.723,0.643,1.277,1.36,1.186
					c7.243-0.915,8.779-4.239,10.292-7.779c0.079,0.009,0.155,0.029,0.237,0.029c1.394,0,2.524-1.355,2.524-3.026
					C325.983,235.443,324.853,234.088,323.459,234.088z"/>
				<g>
					<path style="fill:#FFFFFF;" d="M313.788,246.03c2.517-0.607,5.827-2.278,7.596-5.97c0.463-0.966,0.729-2.016,0.909-3.073
						c0.235-1.38,1.253-2.418,2.473-2.418c0.021,0,0.041,0.007,0.062,0.008c-0.395-0.307-0.863-0.489-1.369-0.489
						c-1.221,0-2.239,1.038-2.473,2.418c-0.18,1.057-0.446,2.106-0.909,3.073c-1.769,3.691-5.079,5.363-7.596,5.969
						c-0.537,0.129-0.911,0.603-0.911,1.155c0,0.723,0.643,1.277,1.36,1.186c0.058-0.007,0.108-0.018,0.165-0.025
						c-0.135-0.192-0.219-0.424-0.219-0.679C312.877,246.633,313.251,246.159,313.788,246.03z"/>
				</g>
				<path style="fill:#BA68C8;" d="M325.38,237.3c0,0.696-0.395,1.261-0.882,1.261c-0.487,0-0.882-0.565-0.882-1.261
					c0-0.696,0.395-1.261,0.882-1.261C324.985,236.039,325.38,236.603,325.38,237.3z"/>
			</g>
		</g>
	</g>
</g>
</svg>
